<?xml version="1.0" encoding="UTF-8"?>
<svg id="_图层_2" data-name="图层 2" xmlns="http://www.w3.org/2000/svg" viewBox="0 0 505.78 598.57">
  <g id="_图层_1-2" data-name="图层 1">
    <path d="m228.85,257.96c3.6-.14,6.54-2.91,6.96-6.48,1.47-12.56,2.66-24.62,4.72-36.54,2.38-13.84,5.92-27.48,9.19-42.26-7.29,1.08-13.81,2.03-20.34,3.02-22.12,3.35-44.2,5.68-66.71,2.5-21.32-3.01-50.62-18.94-65.4-34.6-22.82-24.18-35.92-53.48-39.7-87.31-1.15-10.24-1.01-20.83.18-31.06,1.52-13.06,8.81-20.92,21.95-22.39C97.59.86,115.74-.43,133.71.13c24.27.75,47.36,7.35,68.81,19.2,21.54,11.9,36.03,30.21,47.59,51.3,12.13,22.14,18.41,46.18,22.98,72.34,2.28-4.52,4.01-7.88,5.67-11.28,12.93-26.51,30.91-48.3,57.5-62.21,24.23-12.68,49.83-16.04,76.83-12.8,25.19,3.02,48.78,9.91,70.35,23.65,5.22,3.33,6.07,6.47,4.55,11.95-5.33,19.14-15.23,35.78-27.89,50.77-18.49,21.88-40.56,38.95-68.77,46.19-28.08,7.2-55.15,9.23-81.46-1.33-6.75-2.71-31.93-13.3-38.57-17.25,43.39-17.44,106.17-32.26,145.99-56.41l-.44-1.95c-9.27-1.18-18.51-3.09-27.8-3.42-38.04-1.33-68.53,13.25-92.57,43.04-21.66,26.84-27.41,58.01-28.13,90.97-.3,13.78-.06,13.7,13.15,15.22,72.11,8.27,124.41,61.78,136.13,125.82,2.78,15.21,3.82,30.74,5.56,45.34,8.52,4.75,17.75,9,25.98,14.7,9.61,6.65,15.07,16.98,19.33,27.56,4.72,11.72,11.86,21.31,21.32,29.53,11.9,10.33,16.72,23.73,15.87,39.53-.65,12.07-8.83,22.44-20.24,26.42-19.1,6.66-38.43,13.04-58.14,17.35-47.97,10.49-96.87,13.47-145.84,14.06-29.51.36-59.08.17-88.53-1.49-51.98-2.92-103.95-6.86-153.88-23.48-7.85-2.61-15.53-6.07-22.8-10.02-13.23-7.2-18.12-19.04-15.62-33.99,2.18-13.04,7.24-24.54,17.51-32.97,11.28-9.26,16.5-22.19,22.45-34.69,7.36-15.46,19.26-25.3,35.49-29.93,4.02-1.15,5.54-2.8,5.8-7.02,1.52-24.63,5.53-48.77,16.12-71.34,25-53.29,63.84-84.32,122.67-93.45m-81.21-190.41c31.68,37.35,72.08,61.46,110.07,88.92-5.52-25.21-17.32-46.94-35.42-65.09-20.18-20.25-45.55-25.3-74.65-23.83Z"/>
  </g>
</svg>