<?xml version="1.0" encoding="UTF-8"?>
<svg id="_图层_2" data-name="图层 2" xmlns="http://www.w3.org/2000/svg" viewBox="0 0 393.74 249.15">
  <defs>
    <style>
      .cls-1 {
        fill: #fff;
      }
    </style>
  </defs>
  <g id="_图层_1-2" data-name="图层 1">
    <path class="cls-1" d="m51.34,164.68c-.66-40.79,7.39-78.1,31.56-110.46C105.61,23.82,135.6,5.49,173.89,1.33c36.06-3.92,70.32.21,101.13,20.92,34.64,23.29,54.77,55.94,60.4,97.11,1.9,13.91,1.6,28.15,1.85,42.25.09,5.03,3.36,4.23,6.12,4.44,14.76,1.1,27.21,6.87,37.16,17.92,7.72,8.57,12.05,18.68,13.11,30.04.96,10.3-6.74,17.52-17.25,15.26-8.73-1.88-17.14-5.44-25.52-8.68-17.66-6.82-34.58-5.1-50.72,4.26-36.06,20.91-75.24,26.58-116.03,23.54-26.94-2.01-51.85-10.6-75.22-24.46-11.45-6.79-23.81-12.59-36.45-16.67-16.09-5.2-32.06-1.21-47.31,5.31-1.49.64-2.92,1.41-4.44,1.98-5.77,2.15-11.77,4.2-16.79-1.13-5.07-5.39-4.65-12.11-2.04-18.26,7.55-17.78,22.53-25.53,40.52-28.86,2.91-.54,5.82-1.05,8.92-1.6Z"/>
  </g>
</svg>